<?xml version="1.0" encoding="UTF-8" standalone="no"?>
<!-- Created with Inkscape (http://www.inkscape.org/) -->

<svg
   xmlns:dc="http://purl.org/dc/elements/1.1/"
   xmlns:cc="http://creativecommons.org/ns#"
   xmlns:rdf="http://www.w3.org/1999/02/22-rdf-syntax-ns#"
   xmlns:svg="http://www.w3.org/2000/svg"
   xmlns="http://www.w3.org/2000/svg"
   xmlns:sodipodi="http://sodipodi.sourceforge.net/DTD/sodipodi-0.dtd"
   xmlns:inkscape="http://www.inkscape.org/namespaces/inkscape"
   width="55mm"
   height="107.87598mm"
   viewBox="0 0 55 107.87598"
   version="1.1"
   id="svg1697"
   inkscape:version="0.92.5 (2060ec1f9f, 2020-04-08)"
   sodipodi:docname="layout-vantage-dark.svg">
  <defs
     id="defs1691" />
  <sodipodi:namedview
     id="base"
     pagecolor="#ffffff"
     bordercolor="#666666"
     borderopacity="1.0"
     inkscape:pageopacity="0.0"
     inkscape:pageshadow="2"
     inkscape:zoom="1.1968992"
     inkscape:cx="-118.45074"
     inkscape:cy="281.52287"
     inkscape:document-units="mm"
     inkscape:current-layer="display"
     showgrid="false"
     fit-margin-top="0"
     fit-margin-left="0"
     fit-margin-right="0"
     fit-margin-bottom="0"
     inkscape:window-width="1848"
     inkscape:window-height="1136"
     inkscape:window-x="1992"
     inkscape:window-y="27"
     inkscape:window-maximized="1"
     inkscape:snap-bbox="false"
     inkscape:object-paths="true"
     inkscape:snap-intersection-paths="true"
     inkscape:snap-smooth-nodes="true"
     inkscape:snap-global="false" />
  <metadata
     id="metadata1694">
    <rdf:RDF>
      <cc:Work
         rdf:about="">
        <dc:format>image/svg+xml</dc:format>
        <dc:type
           rdf:resource="http://purl.org/dc/dcmitype/StillImage" />
        <dc:title />
      </cc:Work>
    </rdf:RDF>
  </metadata>
  <g
     inkscape:label="layout"
     inkscape:groupmode="layer"
     id="layout"
     transform="translate(-17.167113,-64.531042)"
     style="display:inline"
     sodipodi:insensitive="true">
    <text
       xml:space="preserve"
       style="font-style:normal;font-variant:normal;font-weight:normal;font-stretch:normal;font-size:3.37874198px;line-height:0%;font-family:'Open Sans';-inkscape-font-specification:'Open Sans';letter-spacing:0px;word-spacing:0px;fill:#000000;fill-opacity:1;stroke:none;stroke-width:0.28156182"
       x="39.47015"
       y="144.56522"
       id="text5174"><tspan
         sodipodi:role="line"
         id="tspan5176"
         x="39.47015"
         y="144.56522"
         style="font-size:2.53405643px;line-height:1.25;stroke-width:0.28156182"> </tspan></text>
    <path
       style="color:#000000;display:inline;overflow:visible;visibility:visible;fill:#666666;fill-opacity:1;fill-rule:evenodd;stroke:#000000;stroke-width:0.12869811;stroke-miterlimit:4;stroke-opacity:1;marker:none;enable-background:accumulate"
       d="m 20.224444,64.595391 h 48.885339 c 1.658114,0 2.992981,1.334858 2.992981,2.992957 V 169.34971 c 0,1.6581 -1.334867,2.99296 -2.992981,2.99296 H 20.224444 c -1.658121,0 -2.992982,-1.33486 -2.992982,-2.99296 V 67.588348 c 0,-1.658099 1.334861,-2.992957 2.992982,-2.992957 z"
       id="path5709"
       inkscape:connector-curvature="0"
       sodipodi:insensitive="true" />
    <g
       id="g2940">
      <path
         inkscape:connector-curvature="0"
         id="path5711"
         style="color:#000000;display:inline;overflow:visible;visibility:visible;fill:none;stroke:#ffffff;stroke-width:0.44706842;stroke-linecap:round;stroke-linejoin:round;stroke-miterlimit:4;stroke-dasharray:none;stroke-opacity:1;marker:none;enable-background:accumulate"
         d="m 29.723992,126.86805 v 1.86168 c -0.606888,0.26548 -1.030902,0.87195 -1.030902,1.57669 0,0.94936 0.769824,1.71918 1.719187,1.71918 0.949364,0 1.719188,-0.76982 1.719188,-1.71918 0,-0.70474 -0.424036,-1.31135 -1.03092,-1.57669 v -1.86168 z m -1.742692,1.00649 0.729309,0.72931 m 4.132688,-0.72931 -0.729291,0.72931 m 1.73624,1.70169 h -1.031383 m 0.02439,2.43099 -0.729309,-0.72931 m -1.70169,1.73626 v -1.03138 m -2.430998,0.0248 0.729291,-0.72927 m -1.736237,-1.70169 h 1.03138" />
      <path
         inkscape:connector-curvature="0"
         id="path5713"
         d="m 30.412277,123.07466 c 3.762148,0 6.790893,3.02848 6.790893,6.79031 0,3.76182 -3.028745,6.7903 -6.790893,6.7903 -3.762154,0 -6.790892,-3.02848 -6.790892,-6.7903 0,-3.76183 3.028727,-6.79031 6.790892,-6.79031 z"
         style="color:#000000;display:inline;overflow:visible;visibility:visible;fill:none;stroke:#ffffff;stroke-width:0.399064;stroke-linecap:round;stroke-linejoin:round;stroke-miterlimit:4;stroke-dashoffset:0;stroke-opacity:1;marker:none;enable-background:accumulate" />
    </g>
    <g
       id="g2936"
       style="stroke:#ffffff">
      <path
         inkscape:connector-curvature="0"
         id="path5715"
         d="m 57.016859,129.61281 c 0.767239,-1.32888 2.466472,-1.78419 3.795366,-1.01698 0.42237,0.24391 0.773108,0.59462 1.016957,1.01698"
         style="color:#000000;display:inline;overflow:visible;visibility:visible;fill:none;stroke:#ffffff;stroke-width:0.46327305;stroke-linecap:round;stroke-linejoin:round;stroke-miterlimit:4;stroke-dashoffset:0;stroke-opacity:1;marker:none;enable-background:accumulate" />
      <path
         inkscape:connector-curvature="0"
         id="path5717"
         d="m 55.908048,131.53332 0.452528,-2.29942 1.312583,0.75783 z"
         style="color:#000000;display:inline;overflow:visible;visibility:visible;fill:none;stroke:#ffffff;stroke-width:0.41070291;stroke-linecap:round;stroke-linejoin:round;stroke-miterlimit:4;stroke-dasharray:none;stroke-dashoffset:0;stroke-opacity:1;marker:none;enable-background:accumulate" />
      <path
         inkscape:connector-curvature="0"
         id="path5719"
         d="m 58.882541,123.07466 c 3.762169,0 6.790903,3.02848 6.790903,6.79031 0,3.76182 -3.028734,6.7903 -6.790903,6.7903 -3.762144,0 -6.790882,-3.02848 -6.790882,-6.7903 0,-3.76183 3.028727,-6.79031 6.790882,-6.79031 z"
         style="color:#000000;display:inline;overflow:visible;visibility:visible;fill:none;stroke:#ffffff;stroke-width:0.399064;stroke-linecap:round;stroke-linejoin:round;stroke-miterlimit:4;stroke-dashoffset:0;stroke-opacity:1;marker:none;enable-background:accumulate" />
    </g>
    <path
       inkscape:connector-curvature="0"
       id="path5723"
       d="m 42.202014,141.29392 c 0,0.12125 -0.04161,0.21493 -0.124786,0.28033 -0.08261,0.065 -0.201071,0.0976 -0.355403,0.0976 h -0.141189 v 0.47161 h -0.139527 v -1.19911 h 0.311082 c 0.299875,0 0.449806,0.1163 0.449806,0.34926 m -0.621354,0.25841 h 0.1256 c 0.123654,0 0.213126,-0.0212 0.268413,-0.0597 0.05525,-0.0399 0.0829,-0.10393 0.0829,-0.19195 0,-0.0792 -0.0258,-0.13822 -0.07791,-0.1771 -0.05197,-0.0389 -0.132988,-0.0583 -0.242962,-0.0583 h -0.155965 v 0.4872"
       style="font-style:normal;font-variant:normal;font-weight:normal;font-stretch:normal;font-size:1.68432426px;line-height:125%;font-family:'Open Sans';-inkscape-font-specification:'Open Sans';letter-spacing:0px;word-spacing:0px;fill:#008ada;fill-opacity:1;stroke:none;stroke-width:0.99766004" />
    <path
       inkscape:connector-curvature="0"
       id="path5725"
       d="m 42.591902,141.64498 v 0.49865 h -0.139527 v -1.19911 h 0.329145 c 0.147198,0 0.255829,0.0283 0.325858,0.0845 0.07052,0.0566 0.105874,0.14104 0.105874,0.25416 0,0.15873 -0.08042,0.26584 -0.241301,0.32134 l 0.325858,0.53887 H 43.13283 l -0.290578,-0.49868 h -0.25035 m 0,-0.11984 h 0.191244 c 0.09845,0 0.170741,-0.0212 0.216697,-0.0583 0.04599,-0.0396 0.06893,-0.0983 0.06893,-0.17639 0,-0.0792 -0.02369,-0.13645 -0.07052,-0.17145 -0.04649,-0.0353 -0.121463,-0.0523 -0.224898,-0.0523 h -0.181417 v 0.45849"
       style="font-style:normal;font-variant:normal;font-weight:normal;font-stretch:normal;font-size:1.68432426px;line-height:125%;font-family:'Open Sans';-inkscape-font-specification:'Open Sans';letter-spacing:0px;word-spacing:0px;fill:#008ada;fill-opacity:1;stroke:none;stroke-width:0.99766004" />
    <path
       inkscape:connector-curvature="0"
       id="path5727"
       d="m 44.162117,142.14363 h -0.66897 v -1.19911 h 0.66897 v 0.12372 h -0.529418 v 0.38631 h 0.497405 v 0.12302 h -0.497405 v 0.44128 h 0.529418 v 0.12478"
       style="font-style:normal;font-variant:normal;font-weight:normal;font-stretch:normal;font-size:1.68432426px;line-height:125%;font-family:'Open Sans';-inkscape-font-specification:'Open Sans';letter-spacing:0px;word-spacing:0px;fill:#008ada;fill-opacity:1;stroke:none;stroke-width:0.99766004" />
    <path
       inkscape:connector-curvature="0"
       id="path5729"
       d="m 45.106055,141.8246 c 0,0.10569 -0.03832,0.18771 -0.114924,0.24674 -0.0766,0.059 -0.180604,0.0887 -0.311894,0.0887 -0.142285,0 -0.251693,-0.0177 -0.328333,-0.0548 v -0.13433 c 0.04917,0.0212 0.102869,0.0371 0.160879,0.0491 0.05797,0.0106 0.115454,0.0177 0.172367,0.0177 0.09297,0 0.163071,-0.0177 0.210122,-0.0523 0.04698,-0.0357 0.07052,-0.0848 0.07052,-0.14776 0,-0.0417 -0.0088,-0.0756 -0.02545,-0.10181 -0.01661,-0.0283 -0.04429,-0.0513 -0.08371,-0.0739 -0.03881,-0.0212 -0.09817,-0.0481 -0.178129,-0.0764 -0.111636,-0.04 -0.191528,-0.0873 -0.239674,-0.14175 -0.04758,-0.0548 -0.07144,-0.12585 -0.07144,-0.21423 0,-0.0926 0.03464,-0.16579 0.104247,-0.22058 0.06943,-0.0548 0.161409,-0.082 0.275802,-0.082 0.119272,0 0.228999,0.0212 0.329146,0.0657 l -0.04352,0.12125 c -0.09898,-0.0417 -0.195345,-0.0622 -0.288917,-0.0622 -0.07381,0 -0.131609,0.0177 -0.173216,0.0477 -0.04161,0.0318 -0.06236,0.0756 -0.06236,0.13221 0,0.0417 0.0081,0.0756 0.02298,0.10252 0.0152,0.0247 0.04101,0.0505 0.07713,0.0732 0.03662,0.0212 0.09248,0.0463 0.167454,0.0732 0.125846,0.0449 0.212313,0.093 0.259399,0.14423 0.04758,0.0513 0.07144,0.11807 0.07144,0.20008"
       style="font-style:normal;font-variant:normal;font-weight:normal;font-stretch:normal;font-size:1.68432426px;line-height:125%;font-family:'Open Sans';-inkscape-font-specification:'Open Sans';letter-spacing:0px;word-spacing:0px;fill:#008ada;fill-opacity:1;stroke:none;stroke-width:0.99766004" />
    <path
       inkscape:connector-curvature="0"
       id="path5731"
       d="m 46.020429,142.14363 h -0.66896 v -1.19911 h 0.66896 v 0.12372 H 45.491 v 0.38631 h 0.497416 v 0.12302 H 45.491 v 0.44128 h 0.529429 v 0.12478"
       style="font-style:normal;font-variant:normal;font-weight:normal;font-stretch:normal;font-size:1.68432426px;line-height:125%;font-family:'Open Sans';-inkscape-font-specification:'Open Sans';letter-spacing:0px;word-spacing:0px;fill:#008ada;fill-opacity:1;stroke:none;stroke-width:0.99766004" />
    <path
       inkscape:connector-curvature="0"
       id="path5733"
       d="m 46.656569,142.14363 h -0.139562 v -1.07528 h -0.380029 v -0.12372 h 0.899609 v 0.12372 h -0.380029 v 1.07528"
       style="font-style:normal;font-variant:normal;font-weight:normal;font-stretch:normal;font-size:1.68432426px;line-height:125%;font-family:'Open Sans';-inkscape-font-specification:'Open Sans';letter-spacing:0px;word-spacing:0px;fill:#008ada;fill-opacity:1;stroke:none;stroke-width:0.99766004" />
    <path
       inkscape:connector-curvature="0"
       id="path5735"
       d="m 47.893528,141.8246 c 0,0.10569 -0.03832,0.18771 -0.114924,0.24674 -0.0766,0.059 -0.180568,0.0887 -0.311894,0.0887 -0.142285,0 -0.251729,-0.0177 -0.328333,-0.0548 v -0.13433 c 0.04917,0.0212 0.102869,0.0371 0.160879,0.0491 0.05797,0.0106 0.115454,0.0177 0.172367,0.0177 0.09297,0 0.163071,-0.0177 0.210122,-0.0523 0.04709,-0.0357 0.07052,-0.0848 0.07052,-0.14776 0,-0.0417 -0.0088,-0.0756 -0.02545,-0.10181 -0.01661,-0.0283 -0.04429,-0.0513 -0.08371,-0.0739 -0.03881,-0.0212 -0.09817,-0.0481 -0.178129,-0.0764 -0.111636,-0.04 -0.191528,-0.0873 -0.239674,-0.14175 -0.04758,-0.0548 -0.07144,-0.12585 -0.07144,-0.21423 0,-0.0926 0.03464,-0.16579 0.104247,-0.22058 0.06943,-0.0548 0.161445,-0.082 0.275802,-0.082 0.119272,0 0.228999,0.0212 0.329146,0.0657 l -0.04352,0.12125 c -0.09898,-0.0417 -0.195381,-0.0622 -0.288917,-0.0622 -0.07381,0 -0.131609,0.0177 -0.173181,0.0477 -0.04161,0.0318 -0.06236,0.0756 -0.06236,0.13221 0,0.0417 0.0081,0.0756 0.02298,0.10252 0.01555,0.0247 0.04101,0.0505 0.07713,0.0732 0.03662,0.0212 0.09248,0.0463 0.167454,0.0732 0.125847,0.0449 0.212313,0.093 0.259364,0.14423 0.04758,0.0513 0.07144,0.11807 0.07144,0.20008"
       style="font-style:normal;font-variant:normal;font-weight:normal;font-stretch:normal;font-size:1.68432426px;line-height:125%;font-family:'Open Sans';-inkscape-font-specification:'Open Sans';letter-spacing:0px;word-spacing:0px;fill:#008ada;fill-opacity:1;stroke:none;stroke-width:0.99766004" />
    <path
       style="fill:none;stroke:#008ada;stroke-width:0.28156185px;stroke-linecap:butt;stroke-linejoin:miter;stroke-opacity:1"
       d="M 29.235563,145.90991 H 60.099049"
       id="path5737"
       inkscape:connector-curvature="0" />
    <path
       style="fill:none;stroke:#008ada;stroke-width:0.28156185px;stroke-linecap:butt;stroke-linejoin:miter;stroke-opacity:1"
       d="m 44.667292,145.90991 v -2.51948"
       id="path5739"
       inkscape:connector-curvature="0" />
    <g
       id="g2945">
      <path
         inkscape:connector-curvature="0"
         id="path5741"
         d="m 23.935436,148.8333 h 9.32353 c 0.440417,0 0.794975,0.35456 0.794975,0.79495 v 9.32353 c 0,0.44043 -0.354558,0.79499 -0.794975,0.79499 h -9.32353 c -0.440417,0 -0.794986,-0.35456 -0.794986,-0.79499 v -9.32353 c 0,-0.44039 0.354569,-0.79495 0.794986,-0.79495 z"
         style="color:#000000;display:inline;overflow:visible;visibility:visible;fill:none;stroke:none;stroke-width:1.07504785;marker:none;enable-background:accumulate" />
      <path
         inkscape:connector-curvature="0"
         id="path5743"
         d="m 28.597192,149.13582 c 2.855412,0 5.154169,2.29875 5.154169,5.15416 0,2.85541 -2.298757,5.1542 -5.154169,5.1542 -2.855406,0 -5.154163,-2.29879 -5.154163,-5.1542 0,-2.85541 2.298757,-5.15416 5.154163,-5.15416 z"
         style="fill:#008ada;fill-opacity:1;stroke:#008ada;stroke-width:0.399064;stroke-miterlimit:4;stroke-opacity:1" />
      <path
         style="font-style:normal;font-variant:normal;font-weight:normal;font-stretch:normal;font-size:6.21045828px;line-height:125%;font-family:'Open Sans';-inkscape-font-specification:'Open Sans';letter-spacing:0px;word-spacing:0px;fill:#ffffff;fill-opacity:1;stroke:none;stroke-width:0.99766004"
         d="m 28.929628,156.42471 h -0.465784 v -2.99367 c 0,-0.24886 0.0074,-0.48458 0.02298,-0.70679 -0.0403,0.0403 -0.08534,0.0824 -0.135144,0.12656 -0.04988,0.0442 -0.277923,0.23083 -0.684287,0.56026 l -0.253001,-0.32734 1.112695,-0.85905 h 0.402533 v 4.20034"
         id="path5745"
         inkscape:connector-curvature="0" />
    </g>
    <g
       id="g2955">
      <path
         inkscape:connector-curvature="0"
         id="path5747"
         d="m 39.723958,148.83326 h 9.32354 c 0.440417,0 0.794979,0.35456 0.794979,0.79495 v 9.32354 c 0,0.44043 -0.354562,0.79499 -0.794979,0.79499 h -9.32354 c -0.44041,0 -0.794979,-0.35456 -0.794979,-0.79499 v -9.32354 c 0,-0.44039 0.354569,-0.79495 0.794979,-0.79495 z"
         style="color:#000000;display:inline;overflow:visible;visibility:visible;fill:none;stroke:none;stroke-width:1.07504785;marker:none;enable-background:accumulate" />
      <path
         inkscape:connector-curvature="0"
         id="path5749"
         d="m 44.385714,149.13579 c 2.855412,0 5.154173,2.29875 5.154173,5.15416 0,2.8554 -2.298761,5.15419 -5.154173,5.15419 -2.855402,0 -5.154156,-2.29879 -5.154156,-5.15419 0,-2.85541 2.298754,-5.15416 5.154156,-5.15416 z"
         style="fill:#008ada;fill-opacity:1;stroke:#008ada;stroke-width:0.399064;stroke-miterlimit:4;stroke-opacity:1" />
      <path
         style="font-style:normal;font-variant:normal;font-weight:normal;font-stretch:normal;font-size:6.21045828px;line-height:125%;font-family:'Open Sans';-inkscape-font-specification:'Open Sans';letter-spacing:0px;word-spacing:0px;fill:#ffffff;fill-opacity:1;stroke:none;stroke-width:0.99766004"
         d="m 45.767371,156.42029 h -2.763057 v -0.41084 l 1.106941,-1.11187 c 0.337347,-0.34078 0.559706,-0.58416 0.667043,-0.72973 0.107324,-0.14565 0.187851,-0.2874 0.241513,-0.4252 0.05366,-0.13786 0.08046,-0.28633 0.08046,-0.4453 -7e-6,-0.22412 -0.06805,-0.40126 -0.204147,-0.53153 -0.136099,-0.13221 -0.324904,-0.19831 -0.566409,-0.19831 -0.174418,3e-5 -0.340245,0.0283 -0.497405,0.0863 -0.155258,0.0576 -0.328721,0.16191 -0.520414,0.31321 l -0.253001,-0.32452 c 0.387186,-0.32168 0.808882,-0.48263 1.265083,-0.48263 0.394843,0 0.704408,0.10145 0.92868,0.30471 0.224262,0.20115 0.336392,0.47214 0.336392,0.81306 0,0.26618 -0.07469,0.52958 -0.224261,0.79007 -0.149496,0.26053 -0.429363,0.58993 -0.839542,0.98832 l -0.920065,0.89924 v 0.0212 h 2.162136 v 0.44244"
         id="path5751"
         inkscape:connector-curvature="0" />
    </g>
    <g
       id="g2950">
      <path
         inkscape:connector-curvature="0"
         id="path5753"
         d="m 56.075555,148.8333 h 9.323544 c 0.440417,0 0.794986,0.35456 0.794986,0.79495 v 9.32353 c 0,0.44043 -0.354569,0.79499 -0.794986,0.79499 h -9.323544 c -0.440417,0 -0.794976,-0.35456 -0.794976,-0.79499 v -9.32353 c 0,-0.44039 0.354559,-0.79495 0.794976,-0.79495 z"
         style="color:#000000;display:inline;overflow:visible;visibility:visible;fill:none;stroke:none;stroke-width:1.07504785;marker:none;enable-background:accumulate" />
      <path
         inkscape:connector-curvature="0"
         id="path5755"
         d="m 60.737321,149.13589 c 2.855413,0 5.154173,2.29875 5.154173,5.15416 0,2.85541 -2.29876,5.15416 -5.154173,5.15416 -2.855412,0 -5.154169,-2.29875 -5.154169,-5.15416 0,-2.85541 2.298767,-5.15416 5.154169,-5.15416 z"
         style="fill:#008ada;fill-opacity:1;stroke:#008ada;stroke-width:0.399064;stroke-miterlimit:4;stroke-opacity:1" />
      <path
         style="font-style:normal;font-variant:normal;font-weight:normal;font-stretch:normal;font-size:6.21045828px;line-height:125%;font-family:'Open Sans';-inkscape-font-specification:'Open Sans';letter-spacing:0px;word-spacing:0px;fill:#ffffff;fill-opacity:1;stroke:none;stroke-width:0.99766004"
         d="m 61.957489,153.21251 c 0,0.26831 -0.07565,0.48748 -0.227125,0.65794 -0.149496,0.17038 -0.362269,0.28456 -0.638283,0.34183 v 0.0212 c 0.337347,0.0421 0.587481,0.14953 0.750413,0.32169 0.162929,0.17251 0.244376,0.39839 0.244376,0.67801 0,0.40031 -0.138961,0.70867 -0.416888,0.92508 -0.277923,0.21458 -0.672798,0.32169 -1.18458,0.32169 -0.222353,0 -0.426489,-0.0177 -0.612406,-0.052 -0.184033,-0.0318 -0.363234,-0.0908 -0.537662,-0.17533 v -0.45393 c 0.182089,0.0901 0.375687,0.15907 0.580778,0.20679 0.207011,0.046 0.402518,0.0689 0.586541,0.0689 0.72646,0 1.089697,-0.28457 1.089697,-0.85329 0,-0.50946 -0.400617,-0.76419 -1.201828,-0.76419 h -0.414028 v -0.41084 h 0.41978 c 0.327766,0 0.587491,-0.0718 0.779177,-0.21529 0.191669,-0.14564 0.287503,-0.34678 0.287503,-0.60335 0,-0.20503 -0.07091,-0.36581 -0.212773,-0.48267 -0.139916,-0.11701 -0.33063,-0.17534 -0.572163,-0.17534 -0.183998,0 -0.357472,0.0247 -0.520407,0.0746 -0.162929,0.0498 -0.348871,0.14175 -0.557784,0.27573 l -0.241512,-0.32169 c 0.172509,-0.1361 0.370898,-0.24215 0.59517,-0.31886 0.22617,-0.0785 0.46385,-0.11771 0.71303,-0.11771 0.408284,3e-5 0.725512,0.094 0.95169,0.28174 0.22617,0.18594 0.339255,0.44152 0.339255,0.7671"
         id="path5757"
         inkscape:connector-curvature="0" />
    </g>
    <g
       id="g2965">
      <path
         inkscape:connector-curvature="0"
         id="path5759"
         d="m 29.984502,104.45064 h 29.365343 c 3.503303,0 6.32367,2.73607 6.32367,6.13467 0,3.3986 -2.820367,6.13463 -6.32367,6.13463 H 29.984502 c -3.503314,0 -6.323659,-2.73603 -6.323659,-6.13463 0,-3.3986 2.820345,-6.13467 6.323659,-6.13467 z"
         style="color:#000000;display:inline;overflow:visible;visibility:visible;fill:#008ada;fill-opacity:1;stroke:#008ada;stroke-width:0.399064;stroke-linecap:round;stroke-linejoin:round;stroke-miterlimit:4;stroke-dashoffset:0;stroke-opacity:1;marker:none;enable-background:accumulate" />
      <path
         inkscape:connector-curvature="0"
         id="path5761"
         d="m 60.526288,110.58527 -4.897902,-3.42882 v 6.85765 z"
         style="color:#000000;display:inline;overflow:visible;visibility:visible;fill:#ffffff;fill-opacity:1;stroke:#008ada;stroke-width:0.49369454;stroke-linecap:round;stroke-linejoin:round;stroke-miterlimit:4;stroke-dasharray:none;stroke-dashoffset:0;stroke-opacity:1;marker:none;enable-background:accumulate" />
      <path
         style="color:#000000;display:inline;overflow:visible;visibility:visible;fill:#ffffff;fill-opacity:1;stroke:#008ada;stroke-width:0.49369454;stroke-linecap:round;stroke-linejoin:round;stroke-miterlimit:4;stroke-dasharray:none;stroke-dashoffset:0;stroke-opacity:1;marker:none;enable-background:accumulate"
         d="m 29.724682,110.58527 4.897902,-3.42882 v 6.85765 z"
         id="path5763"
         inkscape:connector-curvature="0" />
      <path
         style="font-style:normal;font-variant:normal;font-weight:normal;font-stretch:normal;font-size:2.7806685px;line-height:125%;font-family:'Open Sans';-inkscape-font-specification:'Open Sans';letter-spacing:0px;word-spacing:0px;fill:#ffffff;fill-opacity:1;stroke:none;stroke-width:0.99766004"
         d="m 41.917682,111.0491 c 0,0.17428 -0.06324,0.31002 -0.189724,0.40759 -0.126483,0.0976 -0.298108,0.14635 -0.514942,0.14635 -0.234866,0 -0.415545,-0.0318 -0.542028,-0.0908 v -0.222 c 0.08131,0.0354 0.169858,0.0615 0.265586,0.0813 0.09576,0.0212 0.190608,0.0283 0.284569,0.0283 0.153561,0 0.269191,-0.0283 0.346891,-0.0866 0.0777,-0.0587 0.11655,-0.13999 0.11655,-0.24392 0,-0.0686 -0.01379,-0.12443 -0.042,-0.16791 -0.02722,-0.0442 -0.07314,-0.0848 -0.13822,-0.12196 -0.06416,-0.0371 -0.162151,-0.0792 -0.294042,-0.12584 -0.184281,-0.0661 -0.316172,-0.14388 -0.395685,-0.23438 -0.07862,-0.0901 -0.117893,-0.20821 -0.117893,-0.3535 0,-0.15271 0.05737,-0.27396 0.17212,-0.36425 0.114711,-0.0901 0.266505,-0.13539 0.455303,-0.13539 0.196936,0 0.378073,0.0361 0.543396,0.10817 l -0.07183,0.20044 c -0.16353,-0.0686 -0.322499,-0.10287 -0.47699,-0.10287 -0.121958,0 -0.217262,0.0247 -0.285912,0.0785 -0.06865,0.0523 -0.102975,0.12514 -0.102975,0.21811 0,0.0686 0.01273,0.12514 0.03789,0.16933 0.02545,0.0431 0.06773,0.0834 0.127367,0.12054 0.06055,0.0361 0.152677,0.0764 0.276438,0.12054 0.207788,0.0739 0.350532,0.15342 0.428214,0.23826 0.07862,0.0848 0.117893,0.19514 0.117893,0.33053"
         id="path5765"
         inkscape:connector-curvature="0" />
      <path
         style="font-style:normal;font-variant:normal;font-weight:normal;font-stretch:normal;font-size:2.7806685px;line-height:125%;font-family:'Open Sans';-inkscape-font-specification:'Open Sans';letter-spacing:0px;word-spacing:0px;fill:#ffffff;fill-opacity:1;stroke:none;stroke-width:0.99766004"
         d="m 43.579016,110.17306 c 0,0.20043 -0.06865,0.35473 -0.20595,0.46308 -0.136416,0.10747 -0.331973,0.1612 -0.586756,0.1612 h -0.233064 v 0.77859 h -0.230341 v -1.97965 h 0.513574 c 0.495061,0 0.74258,0.19231 0.74258,0.57685 m -1.025795,0.4265 h 0.207329 c 0.204182,0 0.351875,-0.0318 0.443121,-0.099 0.09117,-0.0661 0.136841,-0.17145 0.136841,-0.31674 0,-0.1308 -0.04292,-0.22836 -0.128746,-0.29235 -0.0858,-0.064 -0.219524,-0.0961 -0.4011,-0.0961 h -0.257455 v 0.80432"
         id="path5767"
         inkscape:connector-curvature="0" />
      <path
         style="font-style:normal;font-variant:normal;font-weight:normal;font-stretch:normal;font-size:2.7806685px;line-height:125%;font-family:'Open Sans';-inkscape-font-specification:'Open Sans';letter-spacing:0px;word-spacing:0px;fill:#ffffff;fill-opacity:1;stroke:none;stroke-width:0.99766004"
         d="m 45.096715,111.57586 h -1.104388 v -1.97965 h 1.104388 v 0.20433 h -0.874029 v 0.63775 h 0.821184 v 0.20326 h -0.821184 v 0.7285 h 0.874029 v 0.20574"
         id="path5769"
         inkscape:connector-curvature="0" />
      <path
         style="font-style:normal;font-variant:normal;font-weight:normal;font-stretch:normal;font-size:2.7806685px;line-height:125%;font-family:'Open Sans';-inkscape-font-specification:'Open Sans';letter-spacing:0px;word-spacing:0px;fill:#ffffff;fill-opacity:1;stroke:none;stroke-width:0.99766004"
         d="m 46.641513,111.57586 h -1.104388 v -1.97965 h 1.104388 v 0.20433 h -0.874022 v 0.63775 h 0.821177 v 0.20326 h -0.821177 v 0.72846 h 0.874022 v 0.20574"
         id="path5771"
         inkscape:connector-curvature="0" />
      <path
         style="font-style:normal;font-variant:normal;font-weight:normal;font-stretch:normal;font-size:2.7806685px;line-height:125%;font-family:'Open Sans';-inkscape-font-specification:'Open Sans';letter-spacing:0px;word-spacing:0px;fill:#ffffff;fill-opacity:1;stroke:none;stroke-width:0.99766004"
         d="m 48.663302,110.56707 c 0,0.32663 -0.08901,0.57684 -0.266929,0.75016 -0.177069,0.17251 -0.432276,0.25877 -0.765624,0.25877 h -0.548815 v -1.97965 h 0.607075 c 0.308041,0 0.547457,0.0852 0.718199,0.25594 0.170741,0.17074 0.256112,0.40893 0.256112,0.71496 m -0.243916,0.007 c 0,-0.25806 -0.06504,-0.45273 -0.195133,-0.5836 -0.129205,-0.1308 -0.321616,-0.19619 -0.577268,-0.19619 h -0.334696 v 1.58153 h 0.280504 c 0.274635,0 0.481062,-0.0672 0.619278,-0.20185 0.138219,-0.13539 0.207329,-0.33548 0.207329,-0.59986"
         id="path5773"
         inkscape:connector-curvature="0" />
    </g>
    <g
       id="g5775"
       transform="matrix(0.99766001,0,0,0.99766001,-60.087186,-29.120349)">
      <path
         inkscape:connector-curvature="0"
         id="path5779"
         d="m 111.13064,97.663905 h 1.12409 v 1.153132 h -1.12409 z"
         style="color:#000000;display:inline;overflow:visible;visibility:visible;fill:#ffffff;fill-opacity:1;fill-rule:evenodd;stroke:none;stroke-width:0.52916664;marker:none;enable-background:accumulate" />
      <path
         style="fill:#ffffff;fill-opacity:1"
         clip-path="url(#SVGID_2_-6)"
         d="m 111.94844,100.12746 h -0.51881 c -0.0944,0 -0.18591,0.0316 -0.25947,0.0896 -0.0737,-0.058 -0.16506,-0.0896 -0.25928,-0.0896 h -0.93394 v 1.9418 c 0,0.0566 -0.0465,0.10222 -0.10386,0.10222 h -0.77821 c -0.0572,0 -0.10392,-0.0456 -0.10392,-0.10222 v -1.9418 h -1.97161 c -0.37266,0 -0.67466,0.2974 -0.67466,0.66429 0,0.3669 0.30194,0.66436 0.67466,0.66436 h 0.51887 c 0.2005,0 0.36296,0.16015 0.36296,0.35757 0,0.19771 -0.16252,0.35774 -0.36296,0.35774 h -1.76675 c 0.20057,-0.30921 0.10877,-0.71992 -0.20499,-0.91745 -0.10852,-0.0682 -0.23444,-0.10459 -0.3632,-0.10459 h -0.51875 c -0.20081,0 -0.3635,-0.16021 -0.3635,-0.35787 0,-0.19735 0.16269,-0.35744 0.3635,-0.35744 h 1.19322 v -0.30667 h -1.19322 c -0.37259,0 -0.67465,0.2974 -0.67465,0.66429 0,0.3669 0.30206,0.66442 0.67465,0.66442 h 0.51875 c 0.20057,0 0.3632,0.16015 0.3632,0.35757 0,0.19771 -0.1627,0.35774 -0.3632,0.35774 h -1.66046 v -1.55406 c 0,-0.20347 -0.13555,-0.38271 -0.33339,-0.44088 -0.11083,-0.0326 -0.22566,-0.049 -0.34109,-0.049 h -2.09123 c -0.4733,-0.897219 -1.105538,-1.704334 -1.866602,-2.383111 -0.275946,-0.246194 -0.70259,-0.225531 -0.952784,0.04654 -0.112219,0.122218 -0.174329,0.281036 -0.174329,0.445791 v 4.24153 h 0.311273 V 98.2367 c 0,-0.08865 0.03339,-0.174269 0.09392,-0.240013 0.13464,-0.146517 0.364353,-0.157606 0.513112,-0.02514 0.693137,0.618304 1.27569,1.347252 1.723,2.155943 h -0.41029 c -0.65908,0 -1.19334,0.52632 -1.19334,1.17541 0,0.64908 0.53426,1.17528 1.19334,1.17528 0.65909,0 1.19341,-0.5262 1.19341,-1.17528 0,-0.15112 -0.0294,-0.30037 -0.0868,-0.4404 -0.0593,-0.14476 -0.12271,-0.28728 -0.18979,-0.4284 h 1.13312 c -0.487,0.43719 -0.52214,1.18056 -0.0781,1.66034 0.22595,0.24438 0.54632,0.38374 0.88207,0.38374 h 4.66987 c 0.37242,0 0.67466,-0.29757 0.67466,-0.66453 0,-0.36672 -0.30218,-0.66424 -0.67466,-0.66424 h -0.51886 c -0.20057,0 -0.36327,-0.16021 -0.36327,-0.35787 0,-0.19735 0.16276,-0.35744 0.36327,-0.35744 h 1.6604 v 1.63513 c 0,0.22578 0.1859,0.40895 0.41513,0.40895 h 0.88207 v 0.35775 c 0,0.19742 -0.1627,0.35763 -0.36326,0.35763 H 97.783422 v 0.30661 h 11.829988 c 0.37254,0 0.67466,-0.29764 0.67466,-0.66424 v -2.40177 h 0.62273 c 0.0572,0 0.10361,0.0456 0.10361,0.10222 v 1.94193 h 0.31152 v -1.94199 c 0,-0.0566 0.0464,-0.10222 0.10367,-0.10222 h 0.51881 c 0.0575,0 0.10398,0.0456 0.10398,0.10222 v 1.94193 h 0.31103 v -1.94193 c 6e-5,-0.22571 -0.18548,-0.40883 -0.41495,-0.40883 m -11.93403,2.04403 c -0.486935,0 -0.882131,-0.38878 -0.882131,-0.86856 0,-0.47985 0.395135,-0.8688 0.882131,-0.8688 h 0.57134 c 0.0889,0.17815 0.17112,0.35932 0.24668,0.54317 0.0424,0.10343 0.0642,0.21408 0.0642,0.32563 -6e-5,0.47978 -0.39495,0.86856 -0.88219,0.86856 m 3.21707,0 h -0.36314 c -0.0854,0 -0.17027,-0.012 -0.25226,-0.0362 -0.46669,-0.13695 -0.73216,-0.62085 -0.59315,-1.0807 0.13918,-0.45961 0.63048,-0.72132 1.09742,-0.58413 0.0659,0.0192 0.11101,0.0792 0.11101,0.14694 v 1.55424 z"
         id="path5781"
         inkscape:connector-curvature="0" />
      <path
         style="fill:#ed1c24"
         inkscape:connector-curvature="0"
         id="path5783"
         d="m 111.05268,98.909941 h 1.27726 V 97.60674 h -1.27726 z m 0.2434,-0.772943 h 0.27625 v -0.281702 h 0.23789 v 0.281646 h 0.27625 v 0.242797 h -0.27625 v 0.281524 h -0.23789 v -0.281524 h -0.27625 z" />
      <path
         style="fill:#ffffff;fill-opacity:1"
         clip-path="url(#SVGID_4_-9)"
         d="m 104.50813,98.576368 c -0.0297,-0.03205 -0.084,-0.06199 -0.16318,-0.08992 -0.047,-0.01673 -0.0821,-0.03199 -0.10495,-0.04581 -0.0228,-0.01375 -0.039,-0.02902 -0.0486,-0.04551 -0.01,-0.01642 -0.0147,-0.03763 -0.0147,-0.06363 0,-0.03515 0.0135,-0.0626 0.0394,-0.08223 0.0261,-0.01981 0.0624,-0.02963 0.10883,-0.02963 0.0587,0 0.11919,0.01285 0.18142,0.03884 l 0.0275,-0.07562 c -0.0629,-0.02726 -0.13186,-0.0409 -0.20681,-0.0409 -0.0719,0 -0.12967,0.01703 -0.1733,0.05108 -0.0436,0.03405 -0.0656,0.07992 -0.0656,0.137428 0,0.05496 0.0153,0.09956 0.0451,0.13361 0.0301,0.03405 0.0802,0.06344 0.15027,0.08835 0.0502,0.01763 0.0876,0.03345 0.11228,0.04751 0.0246,0.01394 0.0421,0.02914 0.0525,0.04568 0.0105,0.01666 0.0159,0.03763 0.0159,0.06363 0,0.03915 -0.0147,0.06981 -0.0442,0.09174 -0.0299,0.02193 -0.0739,0.03297 -0.13215,0.03297 -0.0357,0 -0.0719,-0.0037 -0.10847,-0.01127 -0.0365,-0.0075 -0.07,-0.01769 -0.10089,-0.0306 v 0.0838 c 0.0481,0.02272 0.11677,0.03417 0.20615,0.03417 0.0827,0 0.14797,-0.01842 0.1959,-0.05508 0.0481,-0.03678 0.0722,-0.08816 0.0722,-0.15397 0,-0.05127 -0.0151,-0.09271 -0.0445,-0.124642 m 0.75943,0.323452 0.15621,-0.560194 h -0.0886 c -0.0658,0.249467 -0.10137,0.386834 -0.10761,0.412525 -0.006,0.02545 -0.01,0.0443 -0.011,0.05666 h -0.004 c -0.007,-0.03999 -0.0199,-0.08907 -0.0392,-0.14773 l -0.1012,-0.321391 h -0.0926 l -0.10392,0.321391 c -0.006,0.01824 -0.0135,0.0426 -0.0218,0.07338 -0.009,0.03097 -0.0145,0.05599 -0.0185,0.0755 h -0.004 c -0.003,-0.02569 -0.0137,-0.0752 -0.0327,-0.14888 -0.019,-0.07332 -0.0467,-0.18051 -0.0833,-0.321392 h -0.0896 l 0.15409,0.560194 h 0.0991 l 0.10677,-0.327572 c 0.0102,-0.03248 0.0223,-0.07841 0.0361,-0.138095 h 0.004 c 0.0177,0.07132 0.0301,0.116886 0.0366,0.137064 l 0.10361,0.328663 h 0.10126 z m 0.35478,-0.560194 h -0.0857 v 0.560194 h 0.0857 z m -0.0785,-0.109069 c 0.01,0.0094 0.0218,0.014 0.0359,0.014 0.0141,0 0.0258,-0.0046 0.0358,-0.014 0.01,-0.0094 0.0151,-0.02363 0.0151,-0.04272 0,-0.0189 -0.005,-0.0332 -0.0151,-0.04236 -0.01,-0.0092 -0.0216,-0.01387 -0.0358,-0.01387 -0.0141,0 -0.0263,0.0045 -0.0359,0.01358 -0.01,0.009 -0.0145,0.02333 -0.0145,0.04265 -7e-5,0.01915 0.005,0.03333 0.0145,0.04272 m 0.59971,0.423856 c -0.0237,-0.02436 -0.0687,-0.04883 -0.13586,-0.07296 -0.0488,-0.01818 -0.0819,-0.03175 -0.099,-0.04138 -0.0172,-0.0096 -0.0296,-0.01957 -0.0376,-0.03024 -0.007,-0.0106 -0.0115,-0.02333 -0.0115,-0.03835 0,-0.02218 0.0105,-0.03945 0.0312,-0.05211 0.0204,-0.01243 0.0513,-0.01885 0.0918,-0.01885 0.0459,0 0.0975,0.01151 0.15409,0.03478 l 0.0304,-0.06908 c -0.058,-0.02454 -0.11755,-0.03678 -0.17827,-0.03678 -0.0654,0 -0.11683,0.01315 -0.15439,0.03963 -0.0373,0.02648 -0.056,0.06241 -0.056,0.107978 0,0.02569 0.005,0.04751 0.0161,0.06599 0.011,0.01842 0.0272,0.03484 0.0496,0.0492 0.0221,0.0146 0.0596,0.03151 0.11222,0.05083 0.0553,0.02127 0.0923,0.03945 0.11168,0.05508 0.019,0.01546 0.0285,0.03412 0.0285,0.05593 0,0.02896 -0.012,0.05041 -0.036,0.0646 -0.0241,0.01412 -0.0585,0.02121 -0.10325,0.02121 -0.0288,0 -0.0589,-0.004 -0.09,-0.0117 -0.0311,-0.0079 -0.06,-0.01866 -0.0871,-0.03224 v 0.07871 c 0.0417,0.02357 0.10035,0.03527 0.17536,0.03527 0.0705,0 0.12592,-0.01406 0.16506,-0.04242 0.0392,-0.02824 0.0586,-0.06835 0.0586,-0.120522 -2.4e-4,-0.03727 -0.0118,-0.06793 -0.0354,-0.09259 m 0.51438,0 c -0.0237,-0.02436 -0.0688,-0.04883 -0.13591,-0.07296 -0.0488,-0.01818 -0.0819,-0.03175 -0.0991,-0.04138 -0.0172,-0.0096 -0.0297,-0.01957 -0.0373,-0.03024 -0.008,-0.0106 -0.0118,-0.02333 -0.0118,-0.03835 0,-0.02218 0.0104,-0.03945 0.0308,-0.05211 0.021,-0.01242 0.0513,-0.01885 0.0919,-0.01885 0.0461,0 0.0974,0.01151 0.15428,0.03478 l 0.0303,-0.06908 c -0.058,-0.02454 -0.11743,-0.03678 -0.17815,-0.03678 -0.0656,0 -0.11688,0.01315 -0.15415,0.03963 -0.0376,0.02648 -0.0563,0.06241 -0.0563,0.107979 0,0.02569 0.005,0.04751 0.0164,0.06599 0.0107,0.01842 0.0271,0.03484 0.0493,0.0492 0.0221,0.0146 0.0597,0.03151 0.11216,0.05083 0.0554,0.02127 0.0925,0.03945 0.11149,0.05508 0.0193,0.01546 0.0288,0.03412 0.0288,0.05593 0,0.02896 -0.0121,0.05041 -0.036,0.0646 -0.0242,0.01412 -0.0586,0.02121 -0.10332,0.02121 -0.0288,0 -0.0588,-0.004 -0.09,-0.0117 -0.0311,-0.0079 -0.06,-0.01866 -0.0873,-0.03224 v 0.07872 c 0.0419,0.02357 0.10047,0.03527 0.17536,0.03527 0.0709,0 0.12598,-0.01406 0.16518,-0.04242 0.0389,-0.02824 0.0588,-0.06835 0.0588,-0.120521 -2.5e-4,-0.03727 -0.0121,-0.06793 -0.0356,-0.09259 m 1.27593,0.245406 v -0.365565 c 0,-0.07144 -0.0158,-0.123552 -0.0478,-0.155969 -0.0316,-0.0326 -0.0795,-0.04883 -0.14367,-0.04883 -0.0408,0 -0.077,0.0085 -0.10919,0.02557 -0.0319,0.01709 -0.0564,0.04023 -0.0733,0.0695 h -0.004 c -0.0271,-0.06332 -0.0848,-0.09507 -0.17318,-0.09507 -0.0365,0 -0.0695,0.0075 -0.0988,0.02296 -0.0295,0.01539 -0.0521,0.03678 -0.0685,0.06392 h -0.004 l -0.0139,-0.07671 h -0.0696 v 0.560193 h 0.0857 v -0.293882 c 0,-0.07259 0.0123,-0.124764 0.0373,-0.156696 0.025,-0.03181 0.0642,-0.04781 0.11792,-0.04781 0.0407,0 0.0708,0.01133 0.0901,0.03369 0.0193,0.02211 0.029,0.0555 0.029,0.100223 v 0.364475 h 0.0854 V 98.58689 c 0,-0.06302 0.013,-0.109676 0.0381,-0.139973 0.0256,-0.03042 0.0649,-0.04551 0.1184,-0.04551 0.0405,0 0.0704,0.01133 0.0894,0.03369 0.0193,0.02211 0.029,0.0555 0.029,0.100223 v 0.364475 z m 0.60491,-0.492207 c -0.0465,-0.05205 -0.10943,-0.07816 -0.18857,-0.07816 -0.0819,0 -0.14567,0.02557 -0.19154,0.07653 -0.0463,0.05078 -0.0693,0.121916 -0.0693,0.213231 0,0.0589 0.0107,0.110464 0.0318,0.154333 0.0215,0.04399 0.0516,0.07762 0.0907,0.101193 0.0392,0.02357 0.0843,0.03527 0.13457,0.03527 0.0821,0 0.14598,-0.02557 0.19245,-0.07696 0.0464,-0.0512 0.0696,-0.122582 0.0696,-0.213837 7e-5,-0.08901 -0.0231,-0.159424 -0.0697,-0.211595 m -0.31787,0.04841 c 0.0287,-0.0363 0.0709,-0.05454 0.12694,-0.05454 0.0567,0 0.0996,0.01861 0.1287,0.0555 0.0289,0.03684 0.0434,0.09095 0.0434,0.162211 0,0.07199 -0.0145,0.126461 -0.0434,0.163908 -0.0291,0.03715 -0.0719,0.05581 -0.12791,0.05581 -0.0557,0 -0.0982,-0.01866 -0.12725,-0.05605 -0.0288,-0.03757 -0.0433,-0.09217 -0.0433,-0.163666 0,-0.07223 0.0144,-0.12652 0.0428,-0.16318 m 0.6432,0.356779 c -0.0161,-0.01793 -0.0242,-0.04405 -0.0242,-0.0775 v -0.329632 h 0.16403 v -0.06599 h -0.16403 v -0.129853 h -0.0493 l -0.0363,0.119674 -0.0808,0.0352 v 0.04096 h 0.0808 v 0.333087 c 0,0.114159 0.0548,0.171238 0.16397,0.171238 0.0145,0 0.0309,-0.0015 0.0488,-0.0042 0.0181,-0.0028 0.0318,-0.0066 0.041,-0.01109 v -0.0649 c -0.008,0.0024 -0.0193,0.0047 -0.0336,0.0069 -0.014,0.0023 -0.0287,0.0033 -0.0437,0.0033 -0.0283,-6e-5 -0.0504,-0.009 -0.0667,-0.02721 m 0.35309,-0.47318 h -0.0857 v 0.560194 h 0.0857 z m -0.0784,-0.109069 c 0.01,0.0094 0.0217,0.014 0.0362,0.014 0.0137,0 0.0254,-0.0046 0.0354,-0.014 0.01,-0.0094 0.015,-0.02363 0.015,-0.04272 0,-0.01891 -0.005,-0.0332 -0.015,-0.04236 -0.0101,-0.0092 -0.0217,-0.01387 -0.0354,-0.01387 -0.0145,0 -0.0266,0.0045 -0.0362,0.01358 -0.01,0.009 -0.0145,0.02333 -0.0145,0.04265 0,0.01915 0.005,0.03333 0.0145,0.04272 m 0.68859,0.177056 c -0.0467,-0.05205 -0.10961,-0.07816 -0.18869,-0.07816 -0.0817,0 -0.14561,0.02557 -0.19178,0.07653 -0.0459,0.05078 -0.069,0.121915 -0.069,0.21323 0,0.0589 0.0104,0.110464 0.0319,0.154334 0.0213,0.04399 0.0516,0.07762 0.0908,0.101192 0.0391,0.02357 0.084,0.03527 0.13458,0.03527 0.0819,0 0.14603,-0.02557 0.19245,-0.07696 0.0462,-0.0512 0.0695,-0.122583 0.0695,-0.213838 0,-0.08901 -0.0233,-0.159423 -0.0697,-0.211595 m -0.31781,0.04841 c 0.0281,-0.0363 0.0705,-0.05454 0.1267,-0.05454 0.0566,0 0.0995,0.0186 0.12858,0.0555 0.0289,0.03684 0.0437,0.09095 0.0437,0.162211 0,0.07198 -0.0148,0.12646 -0.0437,0.163907 -0.0291,0.03715 -0.0714,0.05581 -0.12749,0.05581 -0.056,0 -0.0986,-0.01866 -0.12755,-0.05605 -0.0287,-0.03757 -0.0432,-0.09216 -0.0432,-0.163665 -6e-5,-0.07223 0.0142,-0.126521 0.043,-0.16318 m 1.02059,0.443792 v -0.365565 c 0,-0.07144 -0.0171,-0.123552 -0.0515,-0.15597 -0.0344,-0.0326 -0.0857,-0.04883 -0.15385,-0.04883 -0.0389,0 -0.0741,0.0075 -0.10574,0.02272 -0.0316,0.01521 -0.0562,0.03647 -0.0737,0.06417 h -0.004 l -0.0139,-0.07672 h -0.0694 v 0.560194 h 0.0856 v -0.293883 c 0,-0.07301 0.0137,-0.125248 0.0413,-0.156939 0.0274,-0.03163 0.071,-0.04756 0.13004,-0.04756 0.0445,0 0.0776,0.01133 0.0985,0.03387 0.0209,0.02254 0.0315,0.05659 0.0315,0.102162 v 0.362354 z"
         id="path5785"
         inkscape:connector-curvature="0" />
    </g>
    <g
       transform="matrix(0.99766001,0,0,0.99766001,-58.397816,-29.120385)"
       id="g5787"
       style="fill:#ffffff;fill-opacity:1;stroke:#008ada;stroke-width:0.02;stroke-miterlimit:4;stroke-dasharray:none;stroke-opacity:1">
      <path
         style="font-style:normal;font-variant:normal;font-weight:normal;font-stretch:normal;font-size:2.24117184px;line-height:125%;font-family:'Open Sans';-inkscape-font-specification:'Open Sans';letter-spacing:0px;word-spacing:0px;fill:#ffffff;fill-opacity:1;stroke:#008ada;stroke-width:0.02;stroke-miterlimit:4;stroke-dasharray:none;stroke-opacity:1"
         d="m 110.77454,126.44774 -0.41709,-0.58525 h 0.2069 l 0.31638,0.45945 0.31528,-0.45945 h 0.20472 l -0.4171,0.58525 0.43899,0.61368 h -0.20581 l -0.33608,-0.4857 -0.33936,0.4857 h -0.20582 l 0.43899,-0.61368"
         id="path5789"
         inkscape:connector-curvature="0" />
      <path
         style="font-style:normal;font-variant:normal;font-weight:normal;font-stretch:normal;font-size:2.24117184px;line-height:125%;font-family:'Open Sans';-inkscape-font-specification:'Open Sans';letter-spacing:0px;word-spacing:0px;fill:#ffffff;fill-opacity:1;stroke:#008ada;stroke-width:0.02;stroke-miterlimit:4;stroke-dasharray:none;stroke-opacity:1"
         d="m 112.24916,127.06142 h -0.17735 v -1.13985 c 0,-0.0948 0.003,-0.18451 0.009,-0.26911 -0.0153,0.0153 -0.0325,0.0314 -0.0514,0.0482 -0.019,0.0168 -0.10583,0.0879 -0.26055,0.21331 l -0.0963,-0.12471 0.42366,-0.32707 h 0.15327 v 1.59929"
         id="path5791"
         inkscape:connector-curvature="0" />
      <path
         style="font-style:normal;font-variant:normal;font-weight:normal;font-stretch:normal;font-size:2.24117184px;line-height:125%;font-family:'Open Sans';-inkscape-font-specification:'Open Sans';letter-spacing:0px;word-spacing:0px;fill:#ffffff;fill-opacity:1;stroke:#008ada;stroke-width:0.02;stroke-miterlimit:4;stroke-dasharray:none;stroke-opacity:1"
         d="m 113.91972,126.25958 c 0,0.2764 -0.0438,0.48278 -0.13137,0.61916 -0.0868,0.13638 -0.22004,0.20456 -0.39957,0.20456 -0.17225,0 -0.30325,-0.0697 -0.39301,-0.20894 -0.0897,-0.14002 -0.13466,-0.34494 -0.13466,-0.61478 0,-0.27857 0.0434,-0.48532 0.13028,-0.62024 0.0868,-0.13491 0.21931,-0.20237 0.39739,-0.20237 0.17369,0 0.30542,0.0704 0.3952,0.21113 0.0905,0.14074 0.13574,0.34457 0.13574,0.61148 m -0.87469,0 c 0,0.23264 0.0274,0.4022 0.0821,0.50867 0.0547,0.10575 0.14195,0.15862 0.26165,0.15862 0.12114,0 0.20872,-0.0536 0.26273,-0.16081 0.0547,-0.10793 0.0821,-0.27675 0.0821,-0.50648 0,-0.22971 -0.0274,-0.39781 -0.0821,-0.50429 -0.054,-0.10719 -0.14159,-0.16079 -0.26273,-0.16079 -0.1197,0 -0.20691,0.0529 -0.26165,0.15861 -0.0547,0.10502 -0.0821,0.27384 -0.0821,0.50647"
         id="path5793"
         inkscape:connector-curvature="0" />
      <path
         style="font-style:normal;font-variant:normal;font-weight:normal;font-stretch:normal;font-size:2.24117184px;line-height:125%;font-family:'Open Sans';-inkscape-font-specification:'Open Sans';letter-spacing:0px;word-spacing:0px;fill:#ffffff;fill-opacity:1;stroke:#008ada;stroke-width:0.02;stroke-miterlimit:4;stroke-dasharray:none;stroke-opacity:1"
         d="m 115.20276,126.25958 c 0,0.2764 -0.0438,0.48278 -0.13137,0.61916 -0.0868,0.13638 -0.22005,0.20456 -0.39958,0.20456 -0.17224,0 -0.30325,-0.0697 -0.39301,-0.20894 -0.0897,-0.14002 -0.13466,-0.34494 -0.13466,-0.61478 0,-0.27857 0.0434,-0.48532 0.13027,-0.62024 0.0868,-0.13491 0.21932,-0.20237 0.3974,-0.20237 0.17369,0 0.30543,0.0704 0.3952,0.21113 0.0905,0.14074 0.13575,0.34457 0.13575,0.61148 m -0.8747,0 c 0,0.23264 0.0274,0.4022 0.0821,0.50867 0.0547,0.10575 0.14196,0.15862 0.26164,0.15862 0.12116,0 0.20873,-0.0536 0.26274,-0.16081 0.0547,-0.10793 0.0821,-0.27675 0.0821,-0.50648 0,-0.22971 -0.0273,-0.39781 -0.0821,-0.50429 -0.054,-0.10719 -0.14158,-0.16079 -0.26274,-0.16079 -0.11968,0 -0.20689,0.0529 -0.26164,0.15861 -0.0547,0.10502 -0.0821,0.27384 -0.0821,0.50647"
         id="path5795"
         inkscape:connector-curvature="0" />
      <path
         style="font-style:normal;font-variant:normal;font-weight:normal;font-stretch:normal;font-size:2.24117184px;line-height:125%;font-family:'Open Sans';-inkscape-font-specification:'Open Sans';letter-spacing:0px;word-spacing:0px;fill:#ffffff;fill-opacity:1;stroke:#008ada;stroke-width:0.02;stroke-miterlimit:4;stroke-dasharray:none;stroke-opacity:1"
         d="m 116.48578,126.25958 c 0,0.2764 -0.0438,0.48278 -0.13136,0.61916 -0.0868,0.13638 -0.22004,0.20456 -0.39958,0.20456 -0.17224,0 -0.30324,-0.0697 -0.39301,-0.20894 -0.0897,-0.14002 -0.13466,-0.34494 -0.13466,-0.61478 0,-0.27857 0.0434,-0.48532 0.13028,-0.62024 0.0868,-0.13491 0.21932,-0.20237 0.39739,-0.20237 0.1737,0 0.30543,0.0704 0.3952,0.21113 0.0905,0.14074 0.13574,0.34457 0.13574,0.61148 m -0.87469,0 c 0,0.23264 0.0274,0.4022 0.0821,0.50867 0.0547,0.10575 0.14195,0.15862 0.26164,0.15862 0.12115,0 0.20873,-0.0536 0.26274,-0.16081 0.0547,-0.10793 0.0821,-0.27675 0.0821,-0.50648 0,-0.22971 -0.0274,-0.39781 -0.0821,-0.50429 -0.054,-0.10719 -0.14159,-0.16079 -0.26274,-0.16079 -0.11969,0 -0.20691,0.0529 -0.26164,0.15861 -0.0547,0.10502 -0.0821,0.27384 -0.0821,0.50647"
         id="path5797"
         inkscape:connector-curvature="0" />
    </g>
    <text
       xml:space="preserve"
       style="font-style:normal;font-variant:normal;font-weight:normal;font-stretch:normal;font-size:11.97192001px;line-height:0%;font-family:'Open Sans';-inkscape-font-specification:'Open Sans';letter-spacing:0px;word-spacing:0px;fill:#008ada;fill-opacity:1;stroke:none;stroke-width:0.99766004"
       x="39.101589"
       y="169.79088"
       id="text8232"><tspan
         sodipodi:role="line"
         id="tspan8234"
         x="39.101589"
         y="169.79088"
         style="font-size:2.53405643px;line-height:1.25;stroke-width:0.99766004">VANTAGE</tspan></text>
    <g
       id="g2926">
      <path
         style="color:#000000;display:inline;overflow:visible;visibility:visible;fill:none;stroke:#ff0000;stroke-width:0.2294618;stroke-linecap:round;stroke-linejoin:round;stroke-miterlimit:4;stroke-dasharray:none;stroke-dashoffset:0;stroke-opacity:1;marker:none;enable-background:accumulate"
         d="m 24.009304,85.632305 c 1.64662,0 2.972237,1.32549 2.972237,2.971958 0,1.646505 -1.325617,2.971994 -2.972237,2.971994 -1.646628,0 -2.972245,-1.325489 -2.972245,-2.971994 0,-1.646468 1.325617,-2.971958 2.972245,-2.971958 z"
         id="path5819"
         inkscape:connector-curvature="0" />
      <text
         id="text5209"
         y="89.300003"
         x="22.507801"
         style="font-style:normal;font-variant:normal;font-weight:normal;font-stretch:normal;font-size:11.97192001px;line-height:0%;font-family:'Open Sans';-inkscape-font-specification:'Open Sans';letter-spacing:0px;word-spacing:0px;fill:#ff0000;fill-opacity:1;stroke:#ff0000;stroke-width:0.02992981;stroke-miterlimit:4;stroke-dasharray:none;stroke-opacity:1"
         xml:space="preserve"><tspan
           style="font-size:1.97621083px;line-height:1.25;stroke-width:0.02992981"
           dy="0 -0.099766001 0.099766001"
           dx="0 0 0.14964901"
           y="89.300003"
           x="22.507801"
           id="tspan5211"
           sodipodi:role="line">1:5</tspan></text>
    </g>
    <g
       id="g2931">
      <path
         inkscape:connector-curvature="0"
         id="path5829"
         d="m 65.324976,85.632305 c 1.646618,0 2.972238,1.32549 2.972238,2.971994 0,1.646469 -1.32562,2.971958 -2.972238,2.971958 -1.646628,0 -2.972248,-1.325489 -2.972248,-2.971958 0,-1.646504 1.32562,-2.971994 2.972248,-2.971994 z"
         style="color:#000000;display:inline;overflow:visible;visibility:visible;fill:none;stroke:#008ada;stroke-width:0.2294618;stroke-linecap:round;stroke-linejoin:round;stroke-miterlimit:4;stroke-dasharray:none;stroke-dashoffset:0;stroke-opacity:1;marker:none;enable-background:accumulate" />
      <text
         xml:space="preserve"
         style="font-style:normal;font-variant:normal;font-weight:normal;font-stretch:normal;font-size:11.97192001px;line-height:0%;font-family:'Open Sans';-inkscape-font-specification:'Open Sans';letter-spacing:0px;word-spacing:0px;fill:#008ada;fill-opacity:1;stroke:#008ada;stroke-width:0.02992981;stroke-miterlimit:4;stroke-dasharray:none;stroke-opacity:1"
         x="63.903763"
         y="89.309662"
         id="text6059"><tspan
           style="font-size:1.97621083px;line-height:1.25;stroke-width:0.02992981"
           sodipodi:role="line"
           id="tspan6061"
           x="63.903763"
           y="89.309662"
           dx="0 0"
           dy="0 -0.099766001 0.099766001">1:1</tspan></text>
    </g>
    <rect
       style="fill:#4d4d4d;fill-opacity:1;stroke:none;stroke-width:0.99766004"
       id="rect8677"
       width="29.131674"
       height="12.370984"
       x="30.101267"
       y="82.32518"
       rx="1.2361746"
       ry="1.1145031" />
  </g>
  <g
     inkscape:groupmode="layer"
     id="sensitive"
     inkscape:label="buttons"
     style="display:none;opacity:0.5">
    <circle
       style="color:#000000;overflow:visible;opacity:1;vector-effect:none;fill:none;fill-opacity:1;fill-rule:evenodd;stroke:none;stroke-width:0.75;stroke-linecap:round;stroke-linejoin:round;stroke-miterlimit:4;stroke-dasharray:0.59999999, 0.59999999;stroke-dashoffset:0;stroke-opacity:1"
       id="key_light"
       cx="13.130489"
       cy="65.394981"
       r="6.9514356"
       inkscape:label="#path1083" />
    <circle
       r="6.9514356"
       cy="65.266251"
       cx="41.708611"
       id="key_reverse"
       style="color:#000000;overflow:visible;opacity:1;vector-effect:none;fill:none;fill-opacity:1;fill-rule:evenodd;stroke:none;stroke-width:0.75;stroke-linecap:round;stroke-linejoin:round;stroke-miterlimit:4;stroke-dasharray:0.59999999, 0.59999999;stroke-dashoffset:0;stroke-opacity:1"
       inkscape:label="#circle1085" />
    <ellipse
       style="color:#000000;overflow:visible;opacity:1;vector-effect:none;fill:none;fill-opacity:1;fill-rule:evenodd;stroke:none;stroke-width:0.75;stroke-linecap:round;stroke-linejoin:round;stroke-miterlimit:4;stroke-dasharray:0.59999999, 0.59999999;stroke-dashoffset:0;stroke-opacity:1"
       id="key_inc"
       cx="39.520195"
       cy="46.085438"
       rx="9.0111198"
       ry="6.9514356"
       inkscape:label="#circle1087" />
    <ellipse
       ry="6.9514356"
       rx="9.0111198"
       cy="46.085438"
       cx="15.447632"
       id="key_dec"
       style="color:#000000;overflow:visible;opacity:1;vector-effect:none;fill:none;fill-opacity:1;fill-rule:evenodd;stroke:none;stroke-width:0.75;stroke-linecap:round;stroke-linejoin:round;stroke-miterlimit:4;stroke-dasharray:0.59999999, 0.59999999;stroke-dashoffset:0;stroke-opacity:1"
       inkscape:label="#ellipse1089" />
    <circle
       r="5.9215932"
       cy="89.725006"
       cx="11.456996"
       id="key_memory_1"
       style="color:#000000;overflow:visible;opacity:1;vector-effect:none;fill:none;fill-opacity:1;fill-rule:evenodd;stroke:none;stroke-width:0.75;stroke-linecap:round;stroke-linejoin:round;stroke-miterlimit:4;stroke-dasharray:0.59999999, 0.59999999;stroke-dashoffset:0;stroke-opacity:1"
       inkscape:label="#circle1091" />
    <circle
       style="color:#000000;overflow:visible;opacity:1;vector-effect:none;fill:none;fill-opacity:1;fill-rule:evenodd;stroke:none;stroke-width:0.75;stroke-linecap:round;stroke-linejoin:round;stroke-miterlimit:4;stroke-dasharray:0.59999999, 0.59999999;stroke-dashoffset:0;stroke-opacity:1"
       id="key_memory_2"
       cx="27.18902"
       cy="89.725006"
       r="5.9215932"
       inkscape:label="#circle1093" />
    <circle
       r="5.9215932"
       cy="89.725006"
       cx="43.46447"
       id="key_memory_3"
       style="color:#000000;overflow:visible;opacity:1;vector-effect:none;fill:none;fill-opacity:1;fill-rule:evenodd;stroke:none;stroke-width:0.75;stroke-linecap:round;stroke-linejoin:round;stroke-miterlimit:4;stroke-dasharray:0.59999999, 0.59999999;stroke-dashoffset:0;stroke-opacity:1"
       inkscape:label="#circle1095" />
    <circle
       style="color:#000000;overflow:visible;opacity:1;vector-effect:none;fill:none;fill-opacity:1;fill-rule:evenodd;stroke:none;stroke-width:0.75;stroke-linecap:round;stroke-linejoin:round;stroke-miterlimit:4;stroke-dasharray:0.6, 0.6;stroke-dashoffset:0;stroke-opacity:1"
       id="key_gear_1_5"
       cx="6.8232298"
       cy="24.108326"
       r="3.7331784"
       inkscape:label="#circle1097" />
    <circle
       r="3.7331784"
       cy="24.108326"
       cx="48.098232"
       id="key_gear_1_1"
       style="color:#000000;overflow:visible;opacity:1;vector-effect:none;fill:none;fill-opacity:1;fill-rule:evenodd;stroke:none;stroke-width:0.75;stroke-linecap:round;stroke-linejoin:round;stroke-miterlimit:4;stroke-dasharray:0.6, 0.6;stroke-dashoffset:0;stroke-opacity:1"
       inkscape:label="#circle1099" />
    <ellipse
       ry="5.2779417"
       rx="9.0111198"
       cy="6.8227005"
       cx="27.162088"
       id="key_dassym"
       style="color:#000000;overflow:visible;opacity:1;vector-effect:none;fill:none;fill-opacity:1;fill-rule:evenodd;stroke:none;stroke-width:0.75;stroke-linecap:round;stroke-linejoin:round;stroke-miterlimit:4;stroke-dasharray:0.59999999, 0.59999999;stroke-dashoffset:0;stroke-opacity:1"
       inkscape:label="#ellipse1101" />
  </g>
  <g
     inkscape:groupmode="layer"
     id="display"
     inkscape:label="display"
     style="display:inline;opacity:0.5">
    <rect
       style="color:#000000;overflow:visible;opacity:1;vector-effect:none;fill:#ff0000;fill-opacity:1;fill-rule:evenodd;stroke:none;stroke-width:0.75;stroke-linecap:round;stroke-linejoin:round;stroke-miterlimit:4;stroke-dasharray:0.59999999, 0.59999999;stroke-dashoffset:0;stroke-opacity:1"
       id="display_7seg_3"
       width="28.242575"
       height="11.720923"
       x="13.38148"
       y="18.083368"
       inkscape:label="#rect1104" />
  </g>
</svg>
