<?xml version="1.0" encoding="UTF-8" standalone="no"?>
<!-- Created with Inkscape (http://www.inkscape.org/) -->

<svg
   xmlns:dc="http://purl.org/dc/elements/1.1/"
   xmlns:cc="http://creativecommons.org/ns#"
   xmlns:rdf="http://www.w3.org/1999/02/22-rdf-syntax-ns#"
   xmlns:svg="http://www.w3.org/2000/svg"
   xmlns="http://www.w3.org/2000/svg"
   xmlns:sodipodi="http://sodipodi.sourceforge.net/DTD/sodipodi-0.dtd"
   xmlns:inkscape="http://www.inkscape.org/namespaces/inkscape"
   width="149.05598"
   height="64"
   viewBox="0 0 39.43773 16.933334"
   version="1.1"
   id="svg1134"
   inkscape:version="0.92.5 (2060ec1f9f, 2020-04-08)"
   sodipodi:docname="btn-dassym.svg"
   inkscape:export-filename="/home/fv/workspace/PyDapi2/src/dsmcp/img/btn-dassym.png"
   inkscape:export-xdpi="300"
   inkscape:export-ydpi="300">
  <defs
     id="defs1128" />
  <sodipodi:namedview
     id="base"
     pagecolor="#ffffff"
     bordercolor="#666666"
     borderopacity="1.0"
     inkscape:pageopacity="0.0"
     inkscape:pageshadow="2"
     inkscape:zoom="4.6835938"
     inkscape:cx="127.99999"
     inkscape:cy="54.959246"
     inkscape:document-units="px"
     inkscape:current-layer="layer1"
     showgrid="false"
     fit-margin-top="0"
     fit-margin-left="0"
     fit-margin-right="0"
     fit-margin-bottom="0"
     inkscape:window-width="1848"
     inkscape:window-height="1016"
     inkscape:window-x="72"
     inkscape:window-y="27"
     inkscape:window-maximized="1"
     units="px" />
  <metadata
     id="metadata1131">
    <rdf:RDF>
      <cc:Work
         rdf:about="">
        <dc:format>image/svg+xml</dc:format>
        <dc:type
           rdf:resource="http://purl.org/dc/dcmitype/StillImage" />
        <dc:title></dc:title>
      </cc:Work>
    </rdf:RDF>
  </metadata>
  <g
     inkscape:label="Calque 1"
     inkscape:groupmode="layer"
     id="layer1"
     transform="translate(-98.248469,-135.15671)">
    <g
       id="g5775"
       transform="matrix(2.5936806,0,0,2.5936806,-155.3704,-116.35634)"
       style="stroke-width:0.38465029"
       inkscape:export-xdpi="300"
       inkscape:export-ydpi="300">
      <path
         inkscape:connector-curvature="0"
         id="path5777"
         d="m 111.86461,96.971481 h 1.12409 v 1.153132 h -1.12409 z"
         style="color:#000000;display:inline;overflow:visible;visibility:visible;fill:#ffffff;fill-opacity:1;fill-rule:evenodd;stroke:none;stroke-width:0.20354411;marker:none;enable-background:accumulate" />
      <path
         inkscape:connector-curvature="0"
         id="path5779"
         d="m 111.86461,96.971481 h 1.12409 v 1.153132 h -1.12409 z"
         style="color:#000000;display:inline;overflow:visible;visibility:visible;fill:#ffffff;fill-opacity:1;fill-rule:evenodd;stroke:none;stroke-width:0.20354411;marker:none;enable-background:accumulate" />
      <path
         style="fill:#005b8c;fill-opacity:1;stroke-width:0.38465029"
         clip-path="url(#SVGID_2_-6)"
         d="m 111.94844,100.12746 h -0.51881 c -0.0944,0 -0.18591,0.0316 -0.25947,0.0896 -0.0737,-0.058 -0.16506,-0.0896 -0.25928,-0.0896 h -0.93394 v 1.9418 c 0,0.0566 -0.0465,0.10222 -0.10386,0.10222 h -0.77821 c -0.0572,0 -0.10392,-0.0456 -0.10392,-0.10222 v -1.9418 h -1.97161 c -0.37266,0 -0.67466,0.2974 -0.67466,0.66429 0,0.3669 0.30194,0.66436 0.67466,0.66436 h 0.51887 c 0.2005,0 0.36296,0.16015 0.36296,0.35757 0,0.19771 -0.16252,0.35774 -0.36296,0.35774 h -1.76675 c 0.20057,-0.30921 0.10877,-0.71992 -0.20499,-0.91745 -0.10852,-0.0682 -0.23444,-0.10459 -0.3632,-0.10459 h -0.51875 c -0.20081,0 -0.3635,-0.16021 -0.3635,-0.35787 0,-0.19735 0.16269,-0.35744 0.3635,-0.35744 h 1.19322 v -0.30667 h -1.19322 c -0.37259,0 -0.67465,0.2974 -0.67465,0.66429 0,0.3669 0.30206,0.66442 0.67465,0.66442 h 0.51875 c 0.20057,0 0.3632,0.16015 0.3632,0.35757 0,0.19771 -0.1627,0.35774 -0.3632,0.35774 h -1.66046 v -1.55406 c 0,-0.20347 -0.13555,-0.38271 -0.33339,-0.44088 -0.11083,-0.0326 -0.22566,-0.049 -0.34109,-0.049 h -2.09123 c -0.4733,-0.897219 -1.105538,-1.704334 -1.866602,-2.383111 -0.275946,-0.246194 -0.70259,-0.225531 -0.952784,0.04654 -0.112219,0.122218 -0.174329,0.281036 -0.174329,0.445791 v 4.24153 h 0.311273 V 98.2367 c 0,-0.08865 0.03339,-0.174269 0.09392,-0.240013 0.13464,-0.146517 0.364353,-0.157606 0.513112,-0.02514 0.693137,0.618304 1.27569,1.347252 1.723,2.155943 h -0.41029 c -0.65908,0 -1.19334,0.52632 -1.19334,1.17541 0,0.64908 0.53426,1.17528 1.19334,1.17528 0.65909,0 1.19341,-0.5262 1.19341,-1.17528 0,-0.15112 -0.0294,-0.30037 -0.0868,-0.4404 -0.0593,-0.14476 -0.12271,-0.28728 -0.18979,-0.4284 h 1.13312 c -0.487,0.43719 -0.52214,1.18056 -0.0781,1.66034 0.22595,0.24438 0.54632,0.38374 0.88207,0.38374 h 4.66987 c 0.37242,0 0.67466,-0.29757 0.67466,-0.66453 0,-0.36672 -0.30218,-0.66424 -0.67466,-0.66424 h -0.51886 c -0.20057,0 -0.36327,-0.16021 -0.36327,-0.35787 0,-0.19735 0.16276,-0.35744 0.36327,-0.35744 h 1.6604 v 1.63513 c 0,0.22578 0.1859,0.40895 0.41513,0.40895 h 0.88207 v 0.35775 c 0,0.19742 -0.1627,0.35763 -0.36326,0.35763 H 97.783422 v 0.30661 h 11.829988 c 0.37254,0 0.67466,-0.29764 0.67466,-0.66424 v -2.40177 h 0.62273 c 0.0572,0 0.10361,0.0456 0.10361,0.10222 v 1.94193 h 0.31152 v -1.94199 c 0,-0.0566 0.0464,-0.10222 0.10367,-0.10222 h 0.51881 c 0.0575,0 0.10398,0.0456 0.10398,0.10222 v 1.94193 h 0.31103 v -1.94193 c 6e-5,-0.22571 -0.18548,-0.40883 -0.41495,-0.40883 m -11.93403,2.04403 c -0.486935,0 -0.882131,-0.38878 -0.882131,-0.86856 0,-0.47985 0.395135,-0.8688 0.882131,-0.8688 h 0.57134 c 0.0889,0.17815 0.17112,0.35932 0.24668,0.54317 0.0424,0.10343 0.0642,0.21408 0.0642,0.32563 -6e-5,0.47978 -0.39495,0.86856 -0.88219,0.86856 m 3.21707,0 h -0.36314 c -0.0854,0 -0.17027,-0.012 -0.25226,-0.0362 -0.46669,-0.13695 -0.73216,-0.62085 -0.59315,-1.0807 0.13918,-0.45961 0.63048,-0.72132 1.09742,-0.58413 0.0659,0.0192 0.11101,0.0792 0.11101,0.14694 v 1.55424 z"
         id="path5781"
         inkscape:connector-curvature="0" />
      <path
         style="fill:#ed1c24;stroke-width:0.38465029"
         inkscape:connector-curvature="0"
         id="path5783"
         d="m 111.05268,98.909941 h 1.27726 V 97.60674 h -1.27726 z m 0.2434,-0.772943 h 0.27625 v -0.281702 h 0.23789 v 0.281646 h 0.27625 v 0.242797 h -0.27625 v 0.281524 h -0.23789 v -0.281524 h -0.27625 z" />
      <path
         style="fill:#005b8c;fill-opacity:1;stroke-width:0.38465029"
         clip-path="url(#SVGID_4_-9)"
         d="m 104.50813,98.576368 c -0.0297,-0.03205 -0.084,-0.06199 -0.16318,-0.08992 -0.047,-0.01673 -0.0821,-0.03199 -0.10495,-0.04581 -0.0228,-0.01375 -0.039,-0.02902 -0.0486,-0.04551 -0.01,-0.01642 -0.0147,-0.03763 -0.0147,-0.06363 0,-0.03515 0.0135,-0.0626 0.0394,-0.08223 0.0261,-0.01981 0.0624,-0.02963 0.10883,-0.02963 0.0587,0 0.11919,0.01285 0.18142,0.03884 l 0.0275,-0.07562 c -0.0629,-0.02726 -0.13186,-0.0409 -0.20681,-0.0409 -0.0719,0 -0.12967,0.01703 -0.1733,0.05108 -0.0436,0.03405 -0.0656,0.07992 -0.0656,0.137428 0,0.05496 0.0153,0.09956 0.0451,0.13361 0.0301,0.03405 0.0802,0.06344 0.15027,0.08835 0.0502,0.01763 0.0876,0.03345 0.11228,0.04751 0.0246,0.01394 0.0421,0.02914 0.0525,0.04568 0.0105,0.01666 0.0159,0.03763 0.0159,0.06363 0,0.03915 -0.0147,0.06981 -0.0442,0.09174 -0.0299,0.02193 -0.0739,0.03297 -0.13215,0.03297 -0.0357,0 -0.0719,-0.0037 -0.10847,-0.01127 -0.0365,-0.0075 -0.07,-0.01769 -0.10089,-0.0306 v 0.0838 c 0.0481,0.02272 0.11677,0.03417 0.20615,0.03417 0.0827,0 0.14797,-0.01842 0.1959,-0.05508 0.0481,-0.03678 0.0722,-0.08816 0.0722,-0.15397 0,-0.05127 -0.0151,-0.09271 -0.0445,-0.124642 m 0.75943,0.323452 0.15621,-0.560194 h -0.0886 c -0.0658,0.249467 -0.10137,0.386834 -0.10761,0.412525 -0.006,0.02545 -0.01,0.0443 -0.011,0.05666 h -0.004 c -0.007,-0.03999 -0.0199,-0.08907 -0.0392,-0.14773 l -0.1012,-0.321391 h -0.0926 l -0.10392,0.321391 c -0.006,0.01824 -0.0135,0.0426 -0.0218,0.07338 -0.009,0.03097 -0.0145,0.05599 -0.0185,0.0755 h -0.004 c -0.003,-0.02569 -0.0137,-0.0752 -0.0327,-0.14888 -0.019,-0.07332 -0.0467,-0.18051 -0.0833,-0.321392 h -0.0896 l 0.15409,0.560194 h 0.0991 l 0.10677,-0.327572 c 0.0102,-0.03248 0.0223,-0.07841 0.0361,-0.138095 h 0.004 c 0.0177,0.07132 0.0301,0.116886 0.0366,0.137064 l 0.10361,0.328663 h 0.10126 z m 0.35478,-0.560194 h -0.0857 v 0.560194 h 0.0857 z m -0.0785,-0.109069 c 0.01,0.0094 0.0218,0.014 0.0359,0.014 0.0141,0 0.0258,-0.0046 0.0358,-0.014 0.01,-0.0094 0.0151,-0.02363 0.0151,-0.04272 0,-0.0189 -0.005,-0.0332 -0.0151,-0.04236 -0.01,-0.0092 -0.0216,-0.01387 -0.0358,-0.01387 -0.0141,0 -0.0263,0.0045 -0.0359,0.01358 -0.01,0.009 -0.0145,0.02333 -0.0145,0.04265 -7e-5,0.01915 0.005,0.03333 0.0145,0.04272 m 0.59971,0.423856 c -0.0237,-0.02436 -0.0687,-0.04883 -0.13586,-0.07296 -0.0488,-0.01818 -0.0819,-0.03175 -0.099,-0.04138 -0.0172,-0.0096 -0.0296,-0.01957 -0.0376,-0.03024 -0.007,-0.0106 -0.0115,-0.02333 -0.0115,-0.03835 0,-0.02218 0.0105,-0.03945 0.0312,-0.05211 0.0204,-0.01243 0.0513,-0.01885 0.0918,-0.01885 0.0459,0 0.0975,0.01151 0.15409,0.03478 l 0.0304,-0.06908 c -0.058,-0.02454 -0.11755,-0.03678 -0.17827,-0.03678 -0.0654,0 -0.11683,0.01315 -0.15439,0.03963 -0.0373,0.02648 -0.056,0.06241 -0.056,0.107978 0,0.02569 0.005,0.04751 0.0161,0.06599 0.011,0.01842 0.0272,0.03484 0.0496,0.0492 0.0221,0.0146 0.0596,0.03151 0.11222,0.05083 0.0553,0.02127 0.0923,0.03945 0.11168,0.05508 0.019,0.01546 0.0285,0.03412 0.0285,0.05593 0,0.02896 -0.012,0.05041 -0.036,0.0646 -0.0241,0.01412 -0.0585,0.02121 -0.10325,0.02121 -0.0288,0 -0.0589,-0.004 -0.09,-0.0117 -0.0311,-0.0079 -0.06,-0.01866 -0.0871,-0.03224 v 0.07871 c 0.0417,0.02357 0.10035,0.03527 0.17536,0.03527 0.0705,0 0.12592,-0.01406 0.16506,-0.04242 0.0392,-0.02824 0.0586,-0.06835 0.0586,-0.120522 -2.4e-4,-0.03727 -0.0118,-0.06793 -0.0354,-0.09259 m 0.51438,0 c -0.0237,-0.02436 -0.0688,-0.04883 -0.13591,-0.07296 -0.0488,-0.01818 -0.0819,-0.03175 -0.0991,-0.04138 -0.0172,-0.0096 -0.0297,-0.01957 -0.0373,-0.03024 -0.008,-0.0106 -0.0118,-0.02333 -0.0118,-0.03835 0,-0.02218 0.0104,-0.03945 0.0308,-0.05211 0.021,-0.01242 0.0513,-0.01885 0.0919,-0.01885 0.0461,0 0.0974,0.01151 0.15428,0.03478 l 0.0303,-0.06908 c -0.058,-0.02454 -0.11743,-0.03678 -0.17815,-0.03678 -0.0656,0 -0.11688,0.01315 -0.15415,0.03963 -0.0376,0.02648 -0.0563,0.06241 -0.0563,0.107979 0,0.02569 0.005,0.04751 0.0164,0.06599 0.0107,0.01842 0.0271,0.03484 0.0493,0.0492 0.0221,0.0146 0.0597,0.03151 0.11216,0.05083 0.0554,0.02127 0.0925,0.03945 0.11149,0.05508 0.0193,0.01546 0.0288,0.03412 0.0288,0.05593 0,0.02896 -0.0121,0.05041 -0.036,0.0646 -0.0242,0.01412 -0.0586,0.02121 -0.10332,0.02121 -0.0288,0 -0.0588,-0.004 -0.09,-0.0117 -0.0311,-0.0079 -0.06,-0.01866 -0.0873,-0.03224 v 0.07872 c 0.0419,0.02357 0.10047,0.03527 0.17536,0.03527 0.0709,0 0.12598,-0.01406 0.16518,-0.04242 0.0389,-0.02824 0.0588,-0.06835 0.0588,-0.120521 -2.5e-4,-0.03727 -0.0121,-0.06793 -0.0356,-0.09259 m 1.27593,0.245406 v -0.365565 c 0,-0.07144 -0.0158,-0.123552 -0.0478,-0.155969 -0.0316,-0.0326 -0.0795,-0.04883 -0.14367,-0.04883 -0.0408,0 -0.077,0.0085 -0.10919,0.02557 -0.0319,0.01709 -0.0564,0.04023 -0.0733,0.0695 h -0.004 c -0.0271,-0.06332 -0.0848,-0.09507 -0.17318,-0.09507 -0.0365,0 -0.0695,0.0075 -0.0988,0.02296 -0.0295,0.01539 -0.0521,0.03678 -0.0685,0.06392 h -0.004 l -0.0139,-0.07671 h -0.0696 v 0.560193 h 0.0857 v -0.293882 c 0,-0.07259 0.0123,-0.124764 0.0373,-0.156696 0.025,-0.03181 0.0642,-0.04781 0.11792,-0.04781 0.0407,0 0.0708,0.01133 0.0901,0.03369 0.0193,0.02211 0.029,0.0555 0.029,0.100223 v 0.364475 h 0.0854 V 98.58689 c 0,-0.06302 0.013,-0.109676 0.0381,-0.139973 0.0256,-0.03042 0.0649,-0.04551 0.1184,-0.04551 0.0405,0 0.0704,0.01133 0.0894,0.03369 0.0193,0.02211 0.029,0.0555 0.029,0.100223 v 0.364475 z m 0.60491,-0.492207 c -0.0465,-0.05205 -0.10943,-0.07816 -0.18857,-0.07816 -0.0819,0 -0.14567,0.02557 -0.19154,0.07653 -0.0463,0.05078 -0.0693,0.121916 -0.0693,0.213231 0,0.0589 0.0107,0.110464 0.0318,0.154333 0.0215,0.04399 0.0516,0.07762 0.0907,0.101193 0.0392,0.02357 0.0843,0.03527 0.13457,0.03527 0.0821,0 0.14598,-0.02557 0.19245,-0.07696 0.0464,-0.0512 0.0696,-0.122582 0.0696,-0.213837 7e-5,-0.08901 -0.0231,-0.159424 -0.0697,-0.211595 m -0.31787,0.04841 c 0.0287,-0.0363 0.0709,-0.05454 0.12694,-0.05454 0.0567,0 0.0996,0.01861 0.1287,0.0555 0.0289,0.03684 0.0434,0.09095 0.0434,0.162211 0,0.07199 -0.0145,0.126461 -0.0434,0.163908 -0.0291,0.03715 -0.0719,0.05581 -0.12791,0.05581 -0.0557,0 -0.0982,-0.01866 -0.12725,-0.05605 -0.0288,-0.03757 -0.0433,-0.09217 -0.0433,-0.163666 0,-0.07223 0.0144,-0.12652 0.0428,-0.16318 m 0.6432,0.356779 c -0.0161,-0.01793 -0.0242,-0.04405 -0.0242,-0.0775 v -0.329632 h 0.16403 v -0.06599 h -0.16403 v -0.129853 h -0.0493 l -0.0363,0.119674 -0.0808,0.0352 v 0.04096 h 0.0808 v 0.333087 c 0,0.114159 0.0548,0.171238 0.16397,0.171238 0.0145,0 0.0309,-0.0015 0.0488,-0.0042 0.0181,-0.0028 0.0318,-0.0066 0.041,-0.01109 v -0.0649 c -0.008,0.0024 -0.0193,0.0047 -0.0336,0.0069 -0.014,0.0023 -0.0287,0.0033 -0.0437,0.0033 -0.0283,-6e-5 -0.0504,-0.009 -0.0667,-0.02721 m 0.35309,-0.47318 h -0.0857 v 0.560194 h 0.0857 z m -0.0784,-0.109069 c 0.01,0.0094 0.0217,0.014 0.0362,0.014 0.0137,0 0.0254,-0.0046 0.0354,-0.014 0.01,-0.0094 0.015,-0.02363 0.015,-0.04272 0,-0.01891 -0.005,-0.0332 -0.015,-0.04236 -0.0101,-0.0092 -0.0217,-0.01387 -0.0354,-0.01387 -0.0145,0 -0.0266,0.0045 -0.0362,0.01358 -0.01,0.009 -0.0145,0.02333 -0.0145,0.04265 0,0.01915 0.005,0.03333 0.0145,0.04272 m 0.68859,0.177056 c -0.0467,-0.05205 -0.10961,-0.07816 -0.18869,-0.07816 -0.0817,0 -0.14561,0.02557 -0.19178,0.07653 -0.0459,0.05078 -0.069,0.121915 -0.069,0.21323 0,0.0589 0.0104,0.110464 0.0319,0.154334 0.0213,0.04399 0.0516,0.07762 0.0908,0.101192 0.0391,0.02357 0.084,0.03527 0.13458,0.03527 0.0819,0 0.14603,-0.02557 0.19245,-0.07696 0.0462,-0.0512 0.0695,-0.122583 0.0695,-0.213838 0,-0.08901 -0.0233,-0.159423 -0.0697,-0.211595 m -0.31781,0.04841 c 0.0281,-0.0363 0.0705,-0.05454 0.1267,-0.05454 0.0566,0 0.0995,0.0186 0.12858,0.0555 0.0289,0.03684 0.0437,0.09095 0.0437,0.162211 0,0.07198 -0.0148,0.12646 -0.0437,0.163907 -0.0291,0.03715 -0.0714,0.05581 -0.12749,0.05581 -0.056,0 -0.0986,-0.01866 -0.12755,-0.05605 -0.0287,-0.03757 -0.0432,-0.09216 -0.0432,-0.163665 -6e-5,-0.07223 0.0142,-0.126521 0.043,-0.16318 m 1.02059,0.443792 v -0.365565 c 0,-0.07144 -0.0171,-0.123552 -0.0515,-0.15597 -0.0344,-0.0326 -0.0857,-0.04883 -0.15385,-0.04883 -0.0389,0 -0.0741,0.0075 -0.10574,0.02272 -0.0316,0.01521 -0.0562,0.03647 -0.0737,0.06417 h -0.004 l -0.0139,-0.07672 h -0.0694 v 0.560194 h 0.0856 v -0.293883 c 0,-0.07301 0.0137,-0.125248 0.0413,-0.156939 0.0274,-0.03163 0.071,-0.04756 0.13004,-0.04756 0.0445,0 0.0776,0.01133 0.0985,0.03387 0.0209,0.02254 0.0315,0.05659 0.0315,0.102162 v 0.362354 z"
         id="path5785"
         inkscape:connector-curvature="0" />
    </g>
  </g>
</svg>
