<?xml version="1.0" encoding="UTF-8" standalone="no"?>
<svg
   xmlns:dc="http://purl.org/dc/elements/1.1/"
   xmlns:cc="http://creativecommons.org/ns#"
   xmlns:rdf="http://www.w3.org/1999/02/22-rdf-syntax-ns#"
   xmlns:svg="http://www.w3.org/2000/svg"
   xmlns="http://www.w3.org/2000/svg"
   xmlns:sodipodi="http://sodipodi.sourceforge.net/DTD/sodipodi-0.dtd"
   xmlns:inkscape="http://www.inkscape.org/namespaces/inkscape"
   enable-background="new 0 0 24 24"
   height="128"
   viewBox="0 0 128 128"
   width="128"
   version="1.1"
   id="svg14"
   sodipodi:docname="autorefresh.svg"
   inkscape:version="0.92.4 (unknown)">
  <metadata
     id="metadata20">
    <rdf:RDF>
      <cc:Work
         rdf:about="">
        <dc:format>image/svg+xml</dc:format>
        <dc:type
           rdf:resource="http://purl.org/dc/dcmitype/StillImage" />
        <dc:title></dc:title>
      </cc:Work>
    </rdf:RDF>
  </metadata>
  <defs
     id="defs18" />
  <sodipodi:namedview
     pagecolor="#ffffff"
     bordercolor="#666666"
     borderopacity="1"
     objecttolerance="10"
     gridtolerance="10"
     guidetolerance="10"
     inkscape:pageopacity="0"
     inkscape:pageshadow="2"
     inkscape:window-width="1853"
     inkscape:window-height="1172"
     id="namedview16"
     showgrid="false"
     inkscape:zoom="2.4583333"
     inkscape:cx="-66.138998"
     inkscape:cy="26.673402"
     inkscape:window-x="1987"
     inkscape:window-y="0"
     inkscape:window-maximized="1"
     inkscape:current-layer="svg14" />
  <g
     id="g12"
     transform="matrix(6.1115242,0,0,6.1111111,-9.3420079,-9.3333332)">
    <g
       id="g10">
      <g
         id="g8">
        <path
           d="M 21,10.12 H 14.22 L 16.96,7.3 C 14.23,4.6 9.81,4.5 7.08,7.2 c -2.73,2.71 -2.73,7.08 0,9.79 2.73,2.71 7.15,2.71 9.88,0 C 18.32,15.65 19,14.08 19,12.1 h 2 c 0,1.98 -0.88,4.55 -2.64,6.29 -3.51,3.48 -9.21,3.48 -12.72,0 C 2.14,14.92 2.11,9.28 5.62,5.81 9.13,2.34 14.76,2.34 18.27,5.81 L 21,3 Z M 12.5,8 v 4.25 L 16,14.33 15.28,15.54 11,13 V 8 Z"
           id="path6"
           inkscape:connector-curvature="0" />
      </g>
    </g>
  </g>
</svg>
