<svg width="151" height="152" viewBox="0 0 151 152" fill="none" xmlns="http://www.w3.org/2000/svg">
<path d="M75.4688 0C117.149 0 150.938 33.9984 150.938 75.9375C150.938 117.877 117.149 151.875 75.4688 151.875C33.7885 151.875 0 117.877 0 75.9375C0 33.9984 33.7885 0 75.4688 0Z" fill="#FEFAEF"/>
<path d="M82.3448 76.5C82.3448 80.6844 79.0145 84 75 84C70.9855 84 67.6552 80.6844 67.6552 76.5C67.6552 72.3156 70.9855 69 75 69C79.0145 69 82.3448 72.3156 82.3448 76.5Z" stroke="#D1562F" stroke-width="6"/>
<path d="M42.6897 76.5C42.6897 80.6844 39.3593 84 35.3448 84C31.3303 84 28 80.6844 28 76.5C28 72.3156 31.3303 69 35.3448 69C39.3593 69 42.6897 72.3156 42.6897 76.5Z" stroke="#D1562F" stroke-width="6"/>
<path d="M122 76.5C122 80.6844 118.67 84 114.655 84C110.641 84 107.31 80.6844 107.31 76.5C107.31 72.3156 110.641 69 114.655 69C118.67 69 122 72.3156 122 76.5Z" stroke="#D1562F" stroke-width="6"/>
</svg>
