<svg width="161" height="162" viewBox="0 0 161 162" fill="none" xmlns="http://www.w3.org/2000/svg">
<path d="M80.5 156.938C122.18 156.938 155.969 122.939 155.969 81C155.969 39.0609 122.18 5.0625 80.5 5.0625C38.8198 5.0625 5.03125 39.0609 5.03125 81C5.03125 122.939 38.8198 156.938 80.5 156.938Z" fill="#FEFAEF"/>
<path d="M127.512 131.301C126.117 132.651 124.399 133.326 122.36 133.326C121.501 133.326 120.428 133.056 119.14 132.516L22.218 91.206C20.286 90.342 18.7028 89.127 17.4685 87.561C16.2342 85.995 15.617 84.078 15.617 81.81V80.19C15.617 77.922 16.2342 76.005 17.4685 74.439C18.7028 72.873 20.286 71.658 22.218 70.794L119.14 29.484C120.428 28.944 121.501 28.674 122.36 28.674C124.399 28.674 126.117 29.349 127.512 30.699C128.907 32.049 129.605 33.804 129.605 35.964C129.605 37.476 129.203 38.853 128.398 40.095C127.593 41.337 126.492 42.282 125.097 42.93L99.981 53.46V108.54L125.097 119.07C126.492 119.718 127.593 120.663 128.398 121.905C129.203 123.147 129.605 124.524 129.605 126.036C129.605 128.196 128.907 129.951 127.512 131.301ZM86.618 102.87V59.13L34.293 81L86.618 102.87Z" fill="#1E3D59"/>
</svg>
