<svg baseProfile="full" height="1024" width="1024" xmlns="http://www.w3.org/2000/svg"><defs><clipPath id="a"><circle cx="512" cy="512" r="480" transform="translate(16 16)"/></clipPath></defs><circle cx="512" cy="512" r="480" style="opacity:.4" transform="translate(16 16)"/><circle cx="512" cy="512" r="480" style="fill:#cecece"/><circle clip-path="url(#a)" cx="512" cy="512" r="480" style="fill:#e4e4e4"/><path d="M165.5 902.5Q153 890 153 872V188H79q-18 0-30.5-12.5T36 145t12.5-30.5T79 102h583q18 0 30.5 12.5T705 145t-12.5 30.5T662 188h-74v684q0 18-12.5 30.5T545 915t-30.5-12.5T502 872V188H239v684q0 18-12.5 30.5T196 915t-30.5-12.5z" transform="matrix(0 -.8192 .8192 0 118.4 831.514)" style="opacity:.4"/><path d="M165.5 902.5Q153 890 153 872V188H79q-18 0-30.5-12.5T36 145t12.5-30.5T79 102h583q18 0 30.5 12.5T705 145t-12.5 30.5T662 188h-74v684q0 18-12.5 30.5T545 915t-30.5-12.5T502 872V188H239v684q0 18-12.5 30.5T196 915t-30.5-12.5z" transform="matrix(0 -.8192 .8192 0 102.4 815.514)" style="fill:#4f4f4f"/></svg>