<svg width="151" height="152" viewBox="0 0 151 152" fill="none" xmlns="http://www.w3.org/2000/svg">
<path d="M75.4688 0C117.149 0 150.938 33.9984 150.938 75.9375C150.938 117.877 117.149 151.875 75.4688 151.875C33.7885 151.875 0 117.877 0 75.9375C0 33.9984 33.7885 0 75.4688 0Z" fill="#FEFAEF"/>
<path d="M103.158 75.9999C103.158 91.8726 90.4997 104.537 75.1338 104.537C59.7678 104.537 47.1096 91.8726 47.1096 75.9999C47.1096 60.1272 59.7678 47.4629 75.1338 47.4629C90.4997 47.4629 103.158 60.1272 103.158 75.9999Z" stroke="#D1562F" stroke-width="17"/>
<rect x="64.1765" y="26" width="23.7407" height="24.0741" fill="#D1562F"/>
<rect x="64.1765" y="101.926" width="23.7407" height="24.0741" fill="#D1562F"/>
<rect width="23.9912" height="23.8245" transform="matrix(0.49478 -0.869018 0.86298 0.505238 90.9811 101.377)" fill="#D1562F"/>
<rect width="23.8245" height="23.9912" transform="matrix(0.86298 -0.505238 0.49478 0.869018 91.5696 51)" fill="#D1562F"/>
<rect width="23.9912" height="23.8245" transform="matrix(0.49478 -0.869018 0.86298 0.505238 24 59.8116)" fill="#D1562F"/>
<rect width="23.8245" height="23.9912" transform="matrix(0.86298 -0.505238 0.49478 0.869018 25.8868 92.5658)" fill="#D1562F"/>
</svg>
